<svg width="69" height="95" viewBox="0 0 69 95" fill="none" xmlns="http://www.w3.org/2000/svg">
<path d="M11.3827 36.0844C10.9848 36.0844 10.6664 35.7655 10.6664 35.3669C10.5371 25.8398 8.17932 18.1264 3.49358 11.7883C3.25482 11.4793 3.31451 11.0408 3.61296 10.8116L8.79613 6.52642C8.9553 6.39687 9.16422 6.33708 9.36319 6.36697C9.57211 6.39687 9.74124 6.51646 9.86062 6.68587C13.064 11.579 15.1035 15.8941 16.1481 19.9202C16.3072 20.568 17.2324 20.7972 17.6702 20.1992C20.5751 16.2728 23.5597 13.5821 26.7731 11.9776C27.1113 11.7982 27.5192 11.9377 27.7182 12.2566L30.9017 17.6879C31.0907 18.0068 31.0012 18.4154 30.6928 18.6346C24.7038 22.8501 20.7841 28.2315 19.0331 34.6294C18.9635 34.9483 18.665 35.1875 18.3367 35.1875C17.9388 35.1875 17.6204 34.8686 17.6204 34.47C17.6204 34.4102 17.6304 34.3205 17.6503 34.2607C19.4311 27.7133 23.3607 22.2023 29.3298 17.8374L26.8129 13.5621C24.0173 15.0968 21.4108 17.5583 18.8242 21.0463C18.3666 21.6442 17.6801 21.993 16.9837 21.993C15.9292 21.993 15.0139 21.2755 14.7652 20.2491C13.8301 16.5718 11.9697 12.6054 9.11448 8.13089L5.06544 11.4793C9.62185 17.8872 11.9896 25.9095 12.1189 35.337C12.109 35.7456 11.7906 36.0645 11.3827 36.0844C11.3927 36.0844 11.3927 36.0844 11.3827 36.0844Z" fill="#50BDF2"/>
<path d="M49.5949 20.6377C49.2865 20.6377 49.0079 20.4484 48.9084 20.1394C47.8141 16.8209 44.2327 13.9608 39.7857 12.8646C35.4581 11.7982 31.4687 12.6453 28.8025 15.2065C28.514 15.4855 28.0564 15.4656 27.7778 15.1766C27.4993 14.8876 27.5192 14.4292 27.8077 14.1501C30.832 11.2501 35.3288 10.2735 40.1239 11.4694C45.0285 12.6852 49.0079 15.924 50.2614 19.681C50.3908 20.0597 50.1918 20.4683 49.8038 20.5879C49.7342 20.6278 49.6645 20.6377 49.5949 20.6377Z" fill="#50BDF2"/>
<path d="M32.981 12.8347C32.6328 12.8347 32.3244 12.5855 32.2647 12.2367C31.8369 9.6058 30.7624 7.08451 29.0613 4.78245C28.6633 4.25428 28.7429 3.53675 29.2204 3.09827L30.8818 1.54363C31.1305 1.31442 31.4688 1.19483 31.8269 1.2048C32.1751 1.2347 32.5034 1.39415 32.7024 1.66322C35.1597 4.69276 36.6321 7.93158 37.1991 11.589C37.2588 11.9876 36.9902 12.3463 36.6022 12.4061C36.2043 12.4759 35.8461 12.1969 35.7665 11.8082C35.2592 8.45976 33.9062 5.47008 31.6578 2.68967L30.2849 4.03503C32.0856 6.49654 33.2197 9.17728 33.6575 11.9976C33.7171 12.3962 33.4485 12.7549 33.0605 12.8147C33.0506 12.8247 33.0207 12.8347 32.981 12.8347Z" fill="#50BDF2"/>
<path d="M45.7946 15.6649C45.6752 15.6649 45.5559 15.635 45.4464 15.5752C45.0982 15.3858 44.9788 14.9474 45.1679 14.5986C46.6303 11.9975 48.9682 9.44634 51.4354 7.76215L50.5599 6.04807C47.6351 7.85184 45.0982 10.5027 43.4269 13.5322C43.2379 13.881 42.8001 14.0006 42.4519 13.8113C42.1037 13.6219 41.9844 13.1834 42.1734 12.8346C44.0039 9.52606 46.7795 6.646 49.9929 4.71267C50.2814 4.53329 50.6495 4.49343 50.9678 4.58312C51.3061 4.68278 51.5846 4.90202 51.7438 5.23089L52.7785 7.2539C53.067 7.82194 52.8779 8.5295 52.3407 8.8783C50.0028 10.4429 47.7843 12.8446 46.3915 15.3061C46.292 15.5254 46.0433 15.6649 45.7946 15.6649Z" fill="#50BDF2"/>
<path d="M41.2083 13.2632C41.1984 13.2632 41.1785 13.2632 41.1487 13.2632C40.7507 13.2333 40.4423 12.8944 40.4722 12.4859L41.1884 2.40067H39.3778L38.5024 11.858C38.4626 12.2567 38.1343 12.5357 37.7164 12.5158C37.3185 12.4759 37.03 12.1171 37.0698 11.7285L38.0049 1.63332C38.0447 1.25462 38.373 0.975586 38.7312 0.975586H41.9644C42.1733 0.975586 42.3624 1.06528 42.4917 1.20479C42.621 1.35428 42.7006 1.54362 42.6807 1.74294L41.9246 12.5855C41.8948 12.9642 41.5864 13.2632 41.2083 13.2632Z" fill="#50BDF2"/>
<path d="M10.1491 68.4527C9.97007 68.4527 9.80095 68.3929 9.65172 68.2633C3.83185 62.8321 1.39447 52.1789 4.65757 47.0665L1.8123 47.5747C1.53375 47.6345 1.22534 47.5648 0.976631 47.3854C0.727919 47.206 0.548845 46.917 0.509051 46.6081L0.0116258 42.3627C-0.0779106 41.7748 0.359824 41.2167 0.976631 41.137L6.18964 40.4792L2.70767 37.4298C2.42911 37.1806 2.26993 36.8318 2.26993 36.4631C2.26993 36.0944 2.41916 35.7456 2.67782 35.4865L5.33407 32.8954C5.71211 32.5167 6.29907 32.4171 6.7965 32.6463L15.3622 36.2339L18.2273 33.583C19.1227 32.7958 20.3563 32.6164 21.4108 33.1246L22.8036 33.8023C22.9529 33.872 23.0921 33.9019 23.2314 33.872C25.6588 33.4136 28.8523 33.8621 30.4341 38.5658C30.5635 38.9445 30.3645 39.3531 29.9765 39.4727C29.5984 39.6023 29.1906 39.403 29.0712 39.0143C28.0465 35.9449 26.2757 34.739 23.5199 35.2672C23.0623 35.3569 22.5848 35.2772 22.1769 35.0579L20.8139 34.4002C20.2867 34.1411 19.6599 34.2208 19.2222 34.6195L16.0387 37.5792C15.8297 37.7686 15.5313 37.8284 15.2826 37.7088L6.32892 33.9617L3.81195 36.4033L8.38826 40.4095C8.60713 40.5988 8.67676 40.8878 8.60712 41.1569C8.51759 41.4359 8.28877 41.6253 8.01022 41.6552L1.47406 42.5322L1.90184 46.0998L4.91623 45.5717C5.42361 45.5019 5.92103 45.7211 6.18964 46.1397C6.4483 46.5682 6.42841 47.1064 6.12995 47.505C3.1454 51.4713 4.81675 61.7359 10.6565 67.207C10.945 67.486 10.9649 67.9345 10.6864 68.2335C10.5371 68.3829 10.3481 68.4527 10.1491 68.4527Z" fill="#50BDF2"/>
<path d="M26.4846 47.3754C26.4149 47.3754 26.3254 47.3655 26.2458 47.3356C25.8678 47.206 25.6588 46.7974 25.7882 46.4088C31.7473 28.8394 42.8001 18.4054 55.3949 18.4054H55.7928C56.6385 18.4154 57.3448 19.1229 57.3448 19.97V27.7233C57.3448 28.4408 56.8673 29.0686 56.1609 29.248C50.6793 30.5834 46.4611 35.6858 44.6008 43.2397C44.5112 43.6184 44.1233 43.8576 43.7253 43.7679C43.3473 43.6782 43.0986 43.2895 43.198 42.8909C45.1877 34.7789 49.784 29.3078 55.8127 27.8429L55.9023 19.98C55.9023 19.9102 55.8426 19.8604 55.7729 19.8604C43.6557 19.6013 32.9809 29.7563 27.1611 46.8772C27.0715 47.1861 26.783 47.3754 26.4846 47.3754Z" fill="#50BDF2"/>
<path d="M55.2755 94.6423C55.1462 94.6423 55.0168 94.6423 54.8676 94.6323C47.7246 94.2935 40.0543 92.2207 31.4588 88.3042C25.6389 85.6533 20.5751 82.1853 16.3968 77.9898C10.0695 71.6218 7.91071 66.1307 10.1591 62.1245C12.2184 57.8393 16.5261 53.4046 22.5648 49.3486C23.9676 48.4119 25.1912 47.2459 26.2458 45.8607C32.1452 38.1572 36.8807 37.8085 47.3465 44.2662C49.0079 45.4321 51.5448 45.9105 55.1362 45.6713C56.8275 45.5517 58.4789 46.0699 59.8021 47.0665C64.7862 50.9132 68.308 59.7029 68.7557 69.4492C69.2133 79.1059 66.5173 87.4272 61.364 92.2406C59.6827 93.7753 57.494 94.6423 55.2755 94.6423ZM54.9372 93.1973C56.9369 93.267 58.8868 92.5495 60.3592 91.1743C65.214 86.6399 67.741 78.7472 67.3032 69.4991C66.8655 60.2909 63.4929 51.7304 58.8967 48.1826C57.872 47.3954 56.5489 46.9967 55.2158 47.0864C51.2264 47.3356 48.4807 46.8273 46.5407 45.4421C36.7514 39.393 32.7919 39.6421 27.3799 46.7177C26.2358 48.2125 24.8828 49.4881 23.3508 50.5246C17.521 54.451 13.3824 58.6964 11.4126 62.7723C9.53232 66.1506 11.6613 71.1932 17.4016 76.9534C21.4606 81.0193 26.3851 84.4076 32.0458 86.9787C40.492 90.8354 47.9832 92.8585 54.9372 93.1973Z" fill="#50BDF2"/>
<path d="M12.8253 84.1186C12.5069 84.1186 12.1786 83.9891 11.9498 83.7698C11.7011 83.5307 11.5519 83.2018 11.5519 82.843V71.8709C11.5519 71.4723 11.8702 71.1534 12.2682 71.1534C12.6661 71.1534 12.9845 71.4723 12.9845 71.8709V82.6736L18.0283 82.3547V79.2554C18.0283 78.8568 18.3467 78.5379 18.7446 78.5379C19.1426 78.5379 19.4609 78.8568 19.4609 79.2554V82.5241C19.4609 83.2018 18.9337 83.7499 18.2771 83.7798L12.885 84.1186C12.875 84.1186 12.8551 84.1186 12.8253 84.1186Z" fill="#50BDF2"/>
<path d="M56.9568 47.2359C56.6086 47.2359 56.3002 46.9768 56.2405 46.6181L55.6237 42.3727C55.4447 41.2765 56.0018 40.1903 56.9966 39.6621L58.2501 38.9844L57.305 35.1776L55.0666 35.6061C54.6388 35.6758 54.221 35.4765 54.032 35.0978C53.843 34.7191 53.9325 34.2607 54.2409 33.9817L55.3949 32.7958L53.9822 29.2779C53.8231 28.9092 53.9922 28.4906 54.3603 28.3312C54.7284 28.1717 55.1462 28.3412 55.3054 28.7099L56.738 32.0882C56.9867 32.6762 56.8574 33.3439 56.4196 33.7824L56.3201 33.882L57.1359 33.7226C57.8224 33.5731 58.5287 34.0116 58.6879 34.7291L59.623 38.7552C59.7524 39.383 59.4738 39.971 58.9266 40.25L57.6831 40.9277C57.2254 41.1669 56.9767 41.6452 57.0563 42.1435L57.6731 46.3988C57.7328 46.7975 57.4543 47.1562 57.0563 47.216C57.0165 47.216 56.9867 47.2359 56.9568 47.2359ZM55.2457 34.9782L55.2158 35.0081C55.2357 34.9982 55.2457 34.9782 55.2457 34.9782Z" fill="#50BDF2"/>
<path d="M32.9212 76.9035C32.583 76.9035 32.2945 76.6643 32.2249 76.3355C30.6629 68.8812 25.7384 66.6589 25.5196 66.5692C24.7436 66.0609 24.1268 65.5726 23.5796 65.0644C17.71 59.7228 19.5604 52.7668 20.018 51.3617C20.1076 51.0527 20.3861 50.8335 20.7045 50.8335C21.1024 50.8335 21.4208 51.1524 21.4208 51.551C21.4208 51.6208 21.4108 51.7105 21.3909 51.7902C20.8338 53.4744 19.451 59.3441 24.5645 63.9981C25.0918 64.4764 25.629 64.9049 26.2259 65.3135C26.3453 65.3434 31.9264 67.8149 33.6475 76.0465C33.737 76.4451 33.4883 76.8238 33.0904 76.8936C33.0207 76.9035 32.961 76.9035 32.9212 76.9035Z" fill="#50BDF2"/>
<path d="M26.017 76.4451C25.9871 76.4451 25.9772 76.4451 25.9473 76.4451C25.5494 76.4052 25.2609 76.0664 25.2907 75.6578C25.7881 70.2764 23.4105 64.885 23.3806 64.8252C23.2214 64.4565 23.3806 64.0379 23.7487 63.8785C24.1168 63.719 24.5346 63.8785 24.6938 64.2472C24.7933 64.4864 27.2506 70.0472 26.7233 75.7973C26.7134 76.1661 26.3851 76.4451 26.017 76.4451Z" fill="#50BDF2"/>
<path d="M54.599 73.4953C54.4199 73.4953 54.2309 73.4256 54.1016 73.286C48.1723 67.5658 44.8395 56.6136 44.7102 56.1651C44.362 55.2284 43.9243 54.2318 43.3174 53.0359C41.0691 48.5115 38.3034 45.3624 36.3933 43.5188C35.0602 42.2432 34.0653 41.4958 33.6873 41.2366C33.3689 41.0074 33.2893 40.549 33.5082 40.2301C33.747 39.9112 34.1946 39.8315 34.513 40.0507C34.9109 40.3298 35.9754 41.137 37.3583 42.4624C39.3579 44.3758 42.243 47.6545 44.5809 52.3682C45.1977 53.6139 45.6454 54.6504 46.0433 55.6768C46.0831 55.8363 49.4158 66.7685 55.0765 72.2297C55.365 72.5087 55.365 72.9572 55.0865 73.2561C54.9671 73.4156 54.788 73.4953 54.599 73.4953Z" fill="#50BDF2"/>
<path d="M55.4944 59.5733C55.3054 59.5733 55.1164 59.5634 54.9074 59.5434C53.0769 59.3641 51.316 58.4472 49.9133 56.9424C47.1078 53.9228 43.8945 53.4246 43.8447 53.4246C43.4468 53.3648 43.1682 52.996 43.2279 52.6074C43.2876 52.2088 43.6557 51.9496 44.0437 51.9895C44.1929 52.0194 47.8142 52.5575 50.9579 55.9558C52.1119 57.2015 53.5544 57.9589 55.0368 58.1084C55.5939 58.1682 56.0714 58.1184 56.4693 57.9888C56.8474 57.8593 57.2553 58.0586 57.3747 58.4472C57.504 58.8259 57.305 59.2345 56.917 59.3541C56.5191 59.5036 56.0217 59.5733 55.4944 59.5733Z" fill="#50BDF2"/>
<path d="M37.4776 60.54C37.2389 60.54 37.01 60.4204 36.8807 60.2012C33.7071 55.2582 34.8313 52.9462 35.1696 52.418C37.1891 47.9235 36.1943 43.1799 36.1744 43.14C36.0848 42.7414 36.3335 42.3627 36.7116 42.273C37.0896 42.2033 37.4876 42.4325 37.5771 42.8311C37.6169 43.0504 38.7013 48.1129 36.433 53.0758C36.4032 53.1356 36.3733 53.1754 36.3435 53.2252C36.3137 53.2651 35.2193 54.9692 38.0646 59.4139C38.2835 59.7527 38.184 60.1912 37.8457 60.4104C37.7562 60.4902 37.607 60.54 37.4776 60.54Z" fill="#50BDF2"/>
</svg>
