<svg width="306" height="58" viewBox="0 0 306 58" fill="none" xmlns="http://www.w3.org/2000/svg">
<mask id="mask0_375_85" style="mask-type:luminance" maskUnits="userSpaceOnUse" x="0" y="0" width="49" height="49">
<path d="M0 24.4595C0 37.9901 10.9936 48.9187 24.4592 48.9187C37.9247 48.9187 48.9184 37.925 48.9184 24.4595C48.9834 10.9939 38.0549 0.000287207 24.4592 0.000287207C10.8635 -0.0647638 0 10.9289 0 24.4595Z" fill="white"/>
</mask>
<g mask="url(#mask0_375_85)">
<path d="M24.4592 48.9188C37.9676 48.9188 48.9184 37.9681 48.9184 24.4596C48.9184 10.9512 37.9676 0.000427246 24.4592 0.000427246C10.9508 0.000427246 0 10.9512 0 24.4596C0 37.9681 10.9508 48.9188 24.4592 48.9188Z" fill="url(#paint0_linear_375_85)"/>
</g>
<path d="M44.1046 27.8421C44.1046 29.013 43.4541 29.9888 42.4783 30.8995C41.2423 31.9403 39.2908 32.5908 37.1441 32.5908H27.7768V31.0947H37.2092C38.9005 31.0947 40.5918 30.5743 41.5676 29.5985C41.8928 29.2732 42.5433 28.6227 42.5433 27.8421C42.5433 27.0615 41.8928 26.411 41.5676 26.0857C40.6569 25.3051 39.3559 24.7197 37.7946 24.6546C37.5995 24.6546 37.3393 24.6546 37.1441 24.6546H29.2729V26.5411H27.8418V21.4671H29.0778V23.2235H36.2984C36.7538 23.2235 37.2092 23.2235 37.5344 23.1584C38.5752 22.9633 39.6161 22.4429 40.3316 21.7924C40.6569 21.4671 41.2423 20.8166 41.2423 20.036C41.2423 19.2554 40.7219 18.6049 40.3316 18.2796C39.3558 17.3689 37.8597 16.7835 36.2984 16.7835H25.1097V15.3523H36.2984C38.25 15.3523 40.0714 16.0028 41.1773 17.0437C42.088 17.8243 42.6084 18.9301 42.6084 20.1011C42.6084 21.272 42.088 22.2477 41.1773 23.1584C40.9171 23.4187 40.5268 23.6138 40.2666 23.874C41.0472 24.1342 41.7627 24.5896 42.3482 25.0449C43.5842 25.5653 44.1046 26.6712 44.1046 27.8421Z" fill="white" stroke="white" stroke-width="1.5" stroke-miterlimit="10"/>
<path d="M26.2806 15.8077C27.2564 16.3281 27.9719 17.0436 28.6224 18.0194C29.1429 18.9301 29.5332 19.9709 29.5332 21.0768V32.5908H27.7768V21.0768C27.7768 20.2962 27.5166 19.5806 27.1263 18.9301C26.6709 18.2796 26.1505 17.7592 25.5 17.434C24.7844 17.1087 24.0689 16.9135 23.2883 16.9135C22.5076 16.9135 21.7921 17.1087 21.0765 17.434C20.426 17.7592 19.8406 18.3447 19.4503 19.0602C18.9949 19.7107 18.7997 20.4913 18.7997 21.2069V32.6559H17.0434V21.1418C17.0434 20.3612 16.7832 19.6457 16.3928 18.9952C15.9375 18.3447 15.4171 17.8243 14.7666 17.499C14.051 17.1738 13.3355 16.9786 12.5548 16.9786C11.7742 16.9786 11.0587 17.1738 10.3431 17.499C9.6926 17.8243 9.10714 18.4097 8.71683 19.1253C8.26148 19.7758 8.06632 20.5564 8.06632 21.272V32.7209H6.30994V21.2069C6.30994 20.1661 6.57016 19.0602 7.22067 18.1495C7.74107 17.2388 8.58673 16.4582 9.4324 15.9378C10.4082 15.4174 11.3839 15.1572 12.4898 15.1572C13.5957 15.1572 14.6365 15.4174 15.6122 15.9378C16.588 16.4582 17.3036 17.1738 17.824 18.1495C18.3444 17.2388 19.19 16.4582 20.0357 15.9378C21.0115 15.4174 21.9872 15.1572 23.1582 15.1572C24.3291 15.1572 25.3699 15.2222 26.2806 15.8077Z" fill="white" stroke="white" stroke-width="1.5" stroke-miterlimit="10"/>
<path d="M19.19 25.0449C19.19 24.3294 18.5395 23.6789 17.824 23.6789C17.1084 23.6789 16.4579 24.3294 16.4579 25.0449V32.6559C16.4579 33.3715 17.1084 34.022 17.824 34.022C18.5395 34.022 19.19 33.3715 19.19 32.6559V25.0449Z" fill="#095EB1" stroke="#095EB1" stroke-width="1.5" stroke-miterlimit="10"/>
<path d="M296.568 32.4608C297.738 32.4608 298.779 32.2006 299.69 31.7452C300.666 31.2248 301.381 30.5743 301.902 29.6636C302.422 28.7528 302.682 27.7771 302.682 26.7363C302.682 25.6954 302.422 24.6546 301.902 23.809C301.381 22.8983 300.666 22.3128 299.69 21.7273C298.779 21.272 297.738 21.0118 296.568 21.0118C295.397 21.0118 294.356 21.272 293.445 21.7924C292.469 22.2477 291.754 22.9633 291.233 23.7439C290.713 24.5245 290.453 25.5003 290.453 26.6712C290.453 27.712 290.713 28.7528 291.233 29.5985C291.754 30.3791 292.599 31.0947 293.445 31.6801C294.291 32.2006 295.397 32.4608 296.568 32.4608ZM296.568 35.3881C294.681 35.3881 293.12 35.0628 291.689 34.3472C290.258 33.5666 289.217 32.5909 288.306 31.2898C287.525 29.9238 287.07 28.4926 287.07 26.8013C287.07 25.11 287.525 23.6789 288.306 22.3128C289.087 20.9467 290.258 19.971 291.689 19.2554C293.12 18.4748 294.746 18.0845 296.568 18.0845C298.324 18.0845 299.95 18.4097 301.381 19.2554C302.812 19.971 303.983 21.0118 304.764 22.3128C305.545 23.5488 306 25.11 306 26.8013C306 28.4926 305.545 29.9238 304.764 31.2898C303.983 32.5258 302.812 33.6317 301.381 34.3472C299.95 35.0628 298.324 35.3881 296.568 35.3881ZM280.24 14.7018C279.524 14.7018 279.004 14.5067 278.613 14.1814C278.288 13.8562 278.093 13.2707 278.093 12.6852C278.093 12.0347 278.288 11.6444 278.613 11.1891C279.069 10.8638 279.589 10.6687 280.24 10.6687C280.955 10.6687 281.476 10.8638 281.866 11.1891C282.191 11.5143 282.386 12.0998 282.386 12.6852C282.386 13.3357 282.191 13.7261 281.736 14.1814C281.411 14.5067 280.825 14.7018 280.24 14.7018ZM278.613 18.5398H281.931V35.1278H278.613V18.5398ZM257.797 22.1176H264.823C265.538 22.1176 266.059 22.0526 266.709 21.7924C267.23 21.5322 267.685 21.1419 268.075 20.7516C268.4 20.2962 268.596 19.7758 268.596 19.2554C268.596 18.2796 268.27 17.5641 267.555 17.1087C266.839 16.6534 265.863 16.3932 264.628 16.3932H257.862L257.797 22.1176ZM257.797 31.8103H265.213C266.124 31.8103 266.904 31.7452 267.62 31.485C268.335 31.2248 268.791 30.8345 269.246 30.4442C269.571 29.9238 269.767 29.2733 269.767 28.5577C269.767 27.8421 269.571 27.1916 269.116 26.8013C268.661 26.346 268.14 26.0207 267.425 25.8256C266.709 25.5653 265.994 25.5003 265.083 25.5003H257.797V31.8103ZM254.415 35.1278V13.0105H264.758C266.384 13.0105 267.685 13.2056 268.791 13.661C269.832 14.1164 270.677 14.7018 271.198 15.5475C271.718 16.3281 272.108 17.434 272.108 18.6049C272.108 19.7758 271.783 20.8166 271.068 21.6623C270.352 22.4429 269.376 23.0934 268.01 23.4187L268.075 22.7681C269.051 22.9633 269.962 23.2886 270.677 23.809C271.458 24.3294 272.108 24.9799 272.564 25.7605C273.019 26.5411 273.279 27.5169 273.279 28.6227C273.279 29.7937 273.084 30.7694 272.629 31.55C272.173 32.3306 271.653 33.0462 270.937 33.6317C270.222 34.1521 269.441 34.5424 268.466 34.8026C267.49 35.0628 266.514 35.1278 265.343 35.1278H254.415ZM231.777 35.1278V18.5398H235.094V22.4429L234.314 22.7031C234.639 21.9225 235.094 21.2069 235.81 20.5564C236.525 19.8409 237.306 19.3204 238.217 18.8651C239.193 18.4097 240.168 18.2146 241.274 18.2146C242.705 18.2146 243.941 18.4748 244.917 19.1253C245.893 19.6457 246.608 20.4914 247.129 21.5322C247.584 22.573 247.844 23.874 247.844 25.3052V35.323H244.462V25.5003C244.462 24.5245 244.267 23.7439 243.941 23.0934C243.616 22.4429 243.161 21.9225 242.445 21.6623C241.795 21.337 241.079 21.1419 240.233 21.2069C239.518 21.2069 238.802 21.272 238.152 21.5322C237.501 21.7924 236.981 22.1827 236.525 22.5079C236.07 22.9633 235.745 23.4187 235.485 23.9391C235.224 24.4595 235.159 24.9799 235.159 25.5654V35.1278H233.533H232.492H231.777ZM217.4 32.4608C218.571 32.4608 219.612 32.2006 220.523 31.7452C221.499 31.2248 222.214 30.5743 222.735 29.6636C223.255 28.7528 223.515 27.7771 223.515 26.7363C223.515 25.6954 223.255 24.6546 222.735 23.809C222.214 22.8983 221.499 22.3128 220.523 21.7273C219.612 21.272 218.571 21.0118 217.4 21.0118C216.23 21.0118 215.189 21.272 214.278 21.7924C213.302 22.2477 212.587 22.9633 212.066 23.7439C211.546 24.5245 211.286 25.5003 211.286 26.6712C211.286 27.712 211.546 28.7528 212.066 29.5985C212.587 30.3791 213.432 31.0947 214.278 31.6801C215.189 32.2006 216.23 32.4608 217.4 32.4608ZM217.4 35.3881C215.514 35.3881 213.953 35.0628 212.522 34.3472C211.091 33.5666 210.05 32.5909 209.139 31.2898C208.358 29.9238 207.903 28.4926 207.903 26.8013C207.903 25.11 208.358 23.6789 209.139 22.3128C209.92 20.9467 211.091 19.971 212.522 19.2554C213.953 18.4748 215.579 18.0845 217.4 18.0845C219.157 18.0845 220.783 18.4097 222.214 19.2554C223.645 19.971 224.816 21.0118 225.597 22.3128C226.378 23.5488 226.833 25.11 226.833 26.8013C226.833 28.4926 226.378 29.9238 225.597 31.2898C224.816 32.5258 223.645 33.6317 222.214 34.3472C220.783 35.0628 219.287 35.3881 217.4 35.3881ZM201.073 14.7018C200.357 14.7018 199.837 14.5067 199.446 14.1814C199.121 13.8562 198.926 13.2707 198.926 12.6852C198.926 12.0347 199.121 11.6444 199.446 11.1891C199.772 10.8638 200.422 10.6687 201.073 10.6687C201.788 10.6687 202.309 10.8638 202.699 11.1891C203.024 11.5143 203.219 12.0998 203.219 12.6852C203.219 13.3357 203.024 13.7261 202.569 14.1814C202.244 14.5067 201.723 14.7018 201.073 14.7018ZM199.511 18.5398H202.829V35.1278H199.511V18.5398ZM181.948 18.5398H194.242V21.6623H181.948V18.5398ZM186.111 13.9212H189.429V35.1278H186.111V13.9212ZM168.352 32.4608C169.523 32.4608 170.499 32.2006 171.409 31.7452C172.32 31.2898 173.036 30.5743 173.556 29.7937C174.076 28.883 174.337 27.9072 174.337 26.8664C174.337 25.8256 174.076 24.9148 173.556 24.0041C173.036 23.2235 172.32 22.508 171.409 22.0526C170.499 21.5322 169.523 21.272 168.352 21.272C167.181 21.272 166.205 21.5322 165.295 22.0526C164.384 22.508 163.668 23.2235 163.213 24.0041C162.693 24.7847 162.432 25.7605 162.432 26.8664C162.432 27.9722 162.693 28.948 163.213 29.7937C163.733 30.5743 164.384 31.2898 165.295 31.7452C166.205 32.2006 167.246 32.4608 168.352 32.4608ZM167.571 35.3881C165.945 35.3881 164.514 35.0628 163.213 34.3472C161.977 33.5666 161.001 32.5909 160.156 31.2248C159.44 29.8587 159.115 28.4276 159.115 26.7363C159.115 25.0449 159.44 23.6138 160.156 22.2477C160.936 20.8817 161.912 19.9059 163.278 19.1903C164.644 18.4748 166.075 18.1495 167.767 18.1495C168.742 18.1495 169.718 18.3447 170.564 18.6049C171.474 18.8651 172.19 19.2554 172.775 19.6457C173.426 20.1011 173.946 20.6215 174.272 21.1419C174.597 21.6623 174.922 22.3128 174.922 22.8983L174.142 22.8332V18.5398H177.459V35.1278H174.142V30.9646H174.857C174.792 31.485 174.532 32.0054 174.076 32.5909C173.751 33.1113 173.101 33.5666 172.45 34.022C171.735 34.4773 171.019 34.8026 170.108 35.0628C169.328 35.323 168.547 35.3881 167.571 35.3881ZM146.56 35.1278L138.559 18.5398H142.201L148.251 31.6801L147.536 31.9403L153.976 18.5398H157.423L149.097 35.1278H146.56ZM132.574 14.7018C131.858 14.7018 131.338 14.5067 130.948 14.1814C130.622 13.8562 130.427 13.2707 130.427 12.6852C130.427 12.0347 130.622 11.6444 130.948 11.1891C131.273 10.8638 131.923 10.6687 132.574 10.6687C133.29 10.6687 133.81 10.8638 134.2 11.1891C134.525 11.5143 134.721 12.0998 134.721 12.6852C134.721 13.3357 134.525 13.7261 134.07 14.1814C133.81 14.5067 133.29 14.7018 132.574 14.7018ZM131.078 18.5398H134.395V35.1278H131.078V18.5398ZM115.465 32.5258C116.636 32.5258 117.612 32.2656 118.523 31.7452C119.434 31.2248 120.149 30.5743 120.67 29.6636C121.19 28.7528 121.45 27.7771 121.45 26.7363C121.45 25.6954 121.19 24.6546 120.67 23.809C120.149 22.8983 119.434 22.3128 118.523 21.7273C117.612 21.2069 116.636 20.9467 115.465 20.9467C114.295 20.9467 113.254 21.2069 112.343 21.7273C111.432 22.1827 110.717 22.8983 110.261 23.809C109.741 24.7197 109.481 25.6954 109.481 26.7363C109.481 27.7771 109.741 28.8179 110.261 29.6636C110.782 30.5743 111.432 31.1597 112.343 31.7452C113.319 32.2656 114.295 32.5258 115.465 32.5258ZM114.945 35.3881C113.254 35.3881 111.758 35.0628 110.392 34.3472C109.025 33.5666 108.05 32.5909 107.334 31.2898C106.619 29.9238 106.293 28.4926 106.293 26.8013C106.293 25.11 106.619 23.6789 107.334 22.3128C108.115 20.9467 109.091 19.971 110.457 19.2554C111.823 18.4748 113.319 18.0845 115.01 18.0845C115.986 18.0845 116.962 18.2796 117.807 18.5398C118.718 18.8 119.499 19.1903 120.149 19.5806C120.865 20.036 121.385 20.5564 121.775 21.0768C122.101 21.5972 122.296 22.1177 122.296 22.7031L121.32 22.7681V11.5143H124.638V34.8676H121.45V30.7044L122.101 30.7694C122.101 31.2898 121.906 31.7452 121.45 32.2656C121.125 32.786 120.539 33.2414 119.954 33.6967C119.369 34.1521 118.523 34.4773 117.742 34.7376C116.701 35.323 115.791 35.3881 114.945 35.3881ZM94.6492 35.3881C92.7627 35.3881 91.0714 35.0628 89.5752 34.3472C88.079 33.6317 86.9081 32.5909 86.1275 31.2898C85.3469 30.0539 84.8915 28.6228 84.8915 26.9314C84.8915 25.5654 85.1517 24.3294 85.6071 23.2886C86.0625 22.2477 86.778 21.337 87.5586 20.4914C88.4693 19.7107 89.4451 19.1253 90.616 18.735C91.787 18.3447 93.0229 18.0845 94.389 18.0845C95.5599 18.0845 96.7308 18.2796 97.7716 18.735C98.8125 19.0602 99.7232 19.7108 100.569 20.4263C101.349 21.1419 101.935 22.0526 102.325 23.0284C102.781 24.0041 102.976 25.11 102.976 26.2159V27.712H87.6237L86.9081 25.11H100.179L99.7232 25.5654V24.7847C99.6581 24.0692 99.3979 23.4187 98.8125 22.8983C98.227 22.3778 97.6415 21.9225 96.926 21.5322C96.1453 21.2069 95.2997 21.0768 94.5191 21.0768C93.2831 21.0768 92.1122 21.272 91.2015 21.7273C90.2908 22.1827 89.5102 22.7031 89.0548 23.6138C88.5344 24.3944 88.2742 25.5003 88.2742 26.7363C88.2742 27.9072 88.5344 28.883 89.1849 29.7937C89.8354 30.5743 90.616 31.2898 91.6568 31.7452C92.6977 32.2006 93.8686 32.4608 95.2997 32.4608C96.4706 32.4608 97.5114 32.2656 98.3571 31.9403C99.2678 31.6151 100.048 31.1597 100.829 30.5092L102.325 32.9161C101.805 33.3715 101.089 33.8268 100.244 34.2822C99.463 34.6074 98.5522 34.9977 97.5765 35.1929C96.5356 35.323 95.6249 35.3881 94.6492 35.3881ZM57.1148 35.1278V13.0105H60.4974L69.3443 25.8256H67.9132L76.8252 13.0105H80.0127V35.1278H76.6301V25.9557C76.6301 24.0692 76.63 22.5079 76.6951 20.9467C76.7602 19.4506 76.9553 17.8243 77.2155 16.3281L77.6709 17.5641L69.5395 28.8179H67.4578L59.5216 17.5641L59.8469 16.198C60.1071 17.6942 60.1721 19.2554 60.3022 20.7516C60.3673 22.2478 60.4974 23.9391 60.4974 25.8256V34.9977H57.0497L57.1148 35.1278Z" fill="#095EB1"/>
<path d="M183.834 51.976L182.338 48.073L180.842 51.976H183.834ZM181.753 46.7069H182.923L186.241 55.0985H185.005L184.224 53.0168H180.582L179.801 55.0985H178.565L181.753 46.7069Z" fill="#095EB1"/>
<path d="M190.014 55.2286C189.364 55.2286 188.778 55.1635 188.323 54.9033C187.802 54.6431 187.412 54.2528 187.152 53.8625C186.892 53.4072 186.696 52.8868 186.696 52.2362C186.696 51.5857 186.892 51.0653 187.152 50.61C187.412 50.1546 187.802 49.8294 188.323 49.5692C188.843 49.3089 189.364 49.2439 190.014 49.2439C190.925 49.2439 191.64 49.439 192.161 49.7643V50.7401C191.64 50.4148 190.99 50.2197 190.209 50.2197C189.559 50.2197 189.038 50.4148 188.583 50.7401C188.258 51.0653 187.932 51.6508 187.932 52.2362C187.932 52.9518 188.128 53.4722 188.583 53.7324C188.908 54.0577 189.494 54.2528 190.209 54.2528C190.99 54.2528 191.705 54.0577 192.291 53.7324V54.7082C192.031 54.9033 191.64 55.0334 191.315 55.1635C190.99 55.2286 190.665 55.2286 190.014 55.2286Z" fill="#095EB1"/>
<path d="M193.592 46.1865H194.828V50.0896C195.348 49.439 196.064 49.1138 197.04 49.1138C197.82 49.1138 198.406 49.3089 198.731 49.7643C199.056 50.2197 199.251 50.7401 199.251 51.3906V55.0334H198.015V51.4556C198.015 50.5449 197.56 50.0245 196.649 50.0245C196.324 50.0245 195.934 50.0896 195.608 50.2847C195.283 50.4799 194.958 50.7401 194.698 51.0653V54.9033H193.527L193.592 46.1865Z" fill="#095EB1"/>
<path d="M200.812 49.3089H202.048V55.0334H200.812V49.3089ZM201.463 48.138C201.268 48.138 201.138 48.073 200.943 47.9429C200.747 47.7477 200.747 47.6827 200.747 47.4225C200.747 47.1623 200.812 47.0972 200.943 46.9021C201.138 46.7069 201.203 46.7069 201.463 46.7069C201.658 46.7069 201.788 46.772 201.983 46.9021C202.179 47.0972 202.179 47.1623 202.179 47.4225C202.179 47.6827 202.113 47.7477 201.983 47.9429C201.788 48.138 201.723 48.138 201.463 48.138Z" fill="#095EB1"/>
<path d="M208.619 51.8459C208.619 51.3255 208.423 50.8702 208.098 50.61C207.773 50.3498 207.318 50.1546 206.667 50.1546C206.017 50.1546 205.626 50.3498 205.236 50.61C204.911 50.8702 204.716 51.3255 204.716 51.8459H208.619ZM206.927 55.2286C205.886 55.2286 205.041 54.9684 204.455 54.448C203.805 53.9276 203.545 53.212 203.545 52.2362C203.545 51.2605 203.805 50.5449 204.325 50.0245C204.846 49.5041 205.691 49.2439 206.667 49.2439C207.318 49.2439 207.903 49.3089 208.358 49.5692C208.814 49.8294 209.139 50.2197 209.399 50.61C209.659 51.0653 209.724 51.5857 209.724 52.1061V52.7566H204.651C204.651 53.2771 204.911 53.7324 205.366 53.9926C205.821 54.2528 206.342 54.3179 207.057 54.3179C207.383 54.3179 207.773 54.3179 208.098 54.2528C208.423 54.1878 208.814 54.0577 209.074 53.9926V54.9684C208.814 55.0334 208.423 55.1635 208.098 55.2286C207.708 55.2286 207.318 55.2286 206.927 55.2286Z" fill="#095EB1"/>
<path d="M210.31 49.309H211.611L213.302 53.4072L215.059 49.309H216.23L213.823 55.0334H212.782L210.31 49.309Z" fill="#095EB1"/>
<path d="M217.661 49.3089H218.897V55.0334H217.661V49.3089ZM218.311 48.138C218.116 48.138 217.986 48.073 217.791 47.9429C217.596 47.7477 217.596 47.6827 217.596 47.4225C217.596 47.1623 217.661 47.0972 217.791 46.9021C217.986 46.7069 218.051 46.7069 218.311 46.7069C218.506 46.7069 218.636 46.772 218.832 46.9021C219.027 47.0972 219.027 47.1623 219.027 47.4225C219.027 47.6827 218.962 47.7477 218.832 47.9429C218.636 48.138 218.506 48.138 218.311 48.138Z" fill="#095EB1"/>
<path d="M220.588 49.309H221.759V50.0896C222.019 49.7643 222.409 49.4391 222.735 49.374C223.06 49.1789 223.515 49.1138 223.971 49.1138C224.751 49.1138 225.337 49.309 225.662 49.7643C225.987 50.2197 226.182 50.7401 226.182 51.3906V55.0334H224.946V51.4556C224.946 50.5449 224.491 50.0245 223.58 50.0245C223.255 50.0245 222.865 50.0896 222.54 50.2847C222.214 50.4799 221.889 50.7401 221.629 51.0653V54.9034H220.393V49.309H220.588Z" fill="#095EB1"/>
<path d="M230.801 54.3179C231.321 54.3179 231.712 54.2528 232.167 53.9926C232.492 53.7324 232.818 53.3421 232.948 52.9518V51.5858C232.753 51.1304 232.492 50.8051 232.167 50.5449C231.842 50.2847 231.386 50.2197 230.931 50.2197C230.606 50.2197 230.216 50.2847 229.89 50.4799C229.63 50.675 229.37 50.9352 229.175 51.1954C228.98 51.5207 228.915 51.911 228.915 52.2363C228.915 52.6916 228.98 53.0169 229.175 53.2771C229.37 53.5373 229.63 53.7975 229.89 53.9926C230.085 54.2528 230.411 54.3179 230.801 54.3179ZM230.736 57.7656C230.411 57.7656 229.955 57.7656 229.565 57.7005C229.24 57.6355 228.849 57.5054 228.654 57.4403V56.4646C229.305 56.7248 230.02 56.9199 230.736 56.9199C231.451 56.9199 231.972 56.7248 232.362 56.4646C232.687 56.1393 232.883 55.684 232.883 55.0335V54.3829C232.362 55.0335 231.517 55.3587 230.541 55.3587C229.89 55.3587 229.5 55.2937 228.915 55.0335C228.459 54.7732 228.134 54.3829 227.874 53.9926C227.614 53.5373 227.548 53.0169 227.548 52.3664C227.548 51.7158 227.614 51.1954 227.874 50.7401C228.134 50.2847 228.524 49.9595 228.915 49.6993C229.37 49.4391 229.89 49.374 230.411 49.374C230.931 49.374 231.386 49.4391 231.777 49.6342C232.102 49.8294 232.492 50.0896 232.818 50.4148V49.6342H233.988V55.0985C233.988 56.0743 233.728 56.7898 233.208 57.3102C232.753 57.5054 231.842 57.7656 230.736 57.7656Z" fill="#095EB1"/>
<path d="M243.226 50.8051C243.746 50.8051 244.202 50.7401 244.592 50.4799C244.917 50.2197 245.112 49.8294 245.112 49.2439C245.112 48.7235 244.917 48.2681 244.592 48.0079C244.267 47.7477 243.811 47.6827 243.226 47.6827H241.339V50.8051H243.226ZM240.103 46.7069H243.291C244.202 46.7069 244.917 46.9671 245.438 47.4225C245.958 47.8778 246.218 48.4633 246.218 49.3089C246.218 50.0896 245.958 50.8051 245.438 51.2605C244.917 51.7158 244.202 51.911 243.291 51.911H241.339V55.0985H240.103V46.7069Z" fill="#095EB1"/>
<path d="M249.731 54.3179C250.381 54.3179 250.902 54.1227 251.227 53.7975C251.552 53.4722 251.747 52.8868 251.747 52.3013C251.747 51.7158 251.552 51.1304 251.227 50.8051C250.902 50.4799 250.316 50.2847 249.731 50.2847C249.145 50.2847 248.56 50.4799 248.235 50.8051C247.909 51.1304 247.714 51.7158 247.714 52.3013C247.714 52.8868 247.909 53.4722 248.235 53.7975C248.56 54.1227 249.08 54.3179 249.731 54.3179ZM249.731 55.2286C249.08 55.2286 248.495 55.1635 248.04 54.9033C247.584 54.6431 247.129 54.2528 246.869 53.8625C246.608 53.4072 246.413 52.8868 246.413 52.2362C246.413 51.5857 246.608 51.0653 246.869 50.61C247.129 50.1546 247.519 49.8294 248.04 49.5692C248.56 49.3089 249.08 49.2439 249.731 49.2439C250.381 49.2439 250.967 49.3089 251.422 49.5692C251.943 49.8294 252.333 50.2197 252.593 50.61C252.853 51.0003 253.048 51.5857 253.048 52.2362C253.048 52.8868 252.853 53.4072 252.593 53.8625C252.333 54.3179 251.943 54.6431 251.422 54.9033C250.902 55.0985 250.316 55.2286 249.731 55.2286Z" fill="#095EB1"/>
<path d="M256.041 55.2286C255.716 55.2286 255.26 55.1636 254.805 55.0335C254.349 54.9684 254.024 54.7733 253.764 54.7082V53.6674C254.024 53.8625 254.48 53.9926 254.805 54.1227C255.26 54.1878 255.585 54.3179 255.976 54.3179C256.431 54.3179 256.691 54.2528 256.952 54.1227C257.147 54.0577 257.212 53.8625 257.212 53.6023C257.212 53.4072 257.147 53.2771 257.017 53.147C256.952 53.0819 256.756 52.9518 256.561 52.8868C256.366 52.8217 256.041 52.6916 255.585 52.6266C255.13 52.4314 254.805 52.3664 254.415 52.1712C254.154 51.9761 253.959 51.846 253.764 51.6508C253.569 51.4557 253.569 51.1304 253.569 50.8702C253.569 50.3498 253.764 49.8944 254.219 49.6342C254.675 49.374 255.195 49.1789 255.976 49.1789C256.301 49.1789 256.756 49.1789 257.147 49.2439C257.472 49.309 257.797 49.4391 258.057 49.5041V50.4799C257.797 50.2847 257.537 50.2197 257.147 50.1546C256.821 50.0896 256.431 50.0896 256.106 50.0896C255.651 50.0896 255.39 50.1546 255.13 50.2847C254.87 50.3498 254.805 50.5449 254.805 50.8051C254.805 51.0003 254.87 51.0654 255 51.2605C255.065 51.3256 255.26 51.4557 255.455 51.5207C255.651 51.5858 255.976 51.7159 256.431 51.7809C257.147 51.9761 257.667 52.2363 257.927 52.4965C258.187 52.7567 258.383 53.147 258.383 53.6674C258.383 54.1878 258.188 54.5781 257.732 54.8383C257.472 55.0985 256.821 55.2286 256.041 55.2286Z" fill="#095EB1"/>
<path d="M261.635 55.2286C261.31 55.2286 260.855 55.1636 260.399 55.0335C259.944 54.9684 259.619 54.7733 259.358 54.7082V53.6674C259.619 53.8625 260.074 53.9926 260.399 54.1227C260.855 54.1878 261.18 54.3179 261.57 54.3179C262.026 54.3179 262.286 54.2528 262.546 54.1227C262.741 54.0577 262.806 53.8625 262.806 53.6023C262.806 53.4072 262.741 53.2771 262.611 53.147C262.546 53.0819 262.351 52.9518 262.156 52.8868C261.96 52.8217 261.635 52.6916 261.18 52.6266C260.724 52.4314 260.399 52.3664 260.009 52.1712C259.749 51.9761 259.554 51.846 259.358 51.6508C259.163 51.4557 259.163 51.1304 259.163 50.8702C259.163 50.3498 259.358 49.8944 259.814 49.6342C260.269 49.374 260.79 49.1789 261.57 49.1789C261.895 49.1789 262.351 49.1789 262.741 49.2439C263.066 49.309 263.392 49.4391 263.652 49.5041V50.4799C263.392 50.2847 263.131 50.2197 262.741 50.1546C262.416 50.0896 262.026 50.0896 261.7 50.0896C261.245 50.0896 260.985 50.1546 260.725 50.2847C260.464 50.3498 260.399 50.5449 260.399 50.8051C260.399 51.0003 260.464 51.0654 260.594 51.2605C260.659 51.3256 260.855 51.4557 261.05 51.5207C261.245 51.5858 261.57 51.7159 262.026 51.7809C262.741 51.9761 263.261 52.2363 263.522 52.4965C263.782 52.7567 263.977 53.147 263.977 53.6674C263.977 54.1878 263.782 54.5781 263.327 54.8383C262.936 54.9684 262.546 55.2286 261.635 55.2286Z" fill="#095EB1"/>
<path d="M265.473 49.3089H266.709V55.0334H265.473V49.3089ZM266.124 48.138C265.929 48.138 265.798 48.073 265.603 47.9429C265.408 47.7477 265.408 47.6827 265.408 47.4225C265.408 47.1623 265.473 47.0972 265.603 46.9021C265.798 46.7069 265.864 46.7069 266.124 46.7069C266.319 46.7069 266.449 46.772 266.644 46.9021C266.839 47.0972 266.839 47.1623 266.839 47.4225C266.839 47.6827 266.774 47.7477 266.644 47.9429C266.514 48.138 266.319 48.138 266.124 48.138Z" fill="#095EB1"/>
<path d="M271.653 54.3179C271.978 54.3179 272.369 54.2528 272.694 54.0577C273.019 53.8625 273.214 53.6023 273.409 53.3421C273.605 53.0169 273.67 52.6266 273.67 52.3013C273.67 51.846 273.605 51.5207 273.409 51.2605C273.214 50.9352 272.954 50.7401 272.694 50.5449C272.434 50.3498 272.043 50.2847 271.653 50.2847C271.263 50.2847 270.742 50.3498 270.287 50.61C269.962 50.8702 269.636 51.2605 269.506 51.6508V52.8868C269.702 53.3421 269.962 53.6674 270.287 53.9276C270.742 54.1227 271.133 54.3179 271.653 54.3179ZM271.978 55.2286C271.458 55.2286 271.003 55.1635 270.612 54.9684C270.287 54.7732 269.897 54.513 269.571 54.1878V54.9684H268.401V46.1215H269.636V49.9595C269.897 49.6993 270.287 49.4391 270.612 49.2439C271.068 49.0487 271.523 48.9837 271.978 48.9837C272.499 48.9837 273.019 49.0488 273.474 49.309C273.93 49.5692 274.255 49.9595 274.515 50.3498C274.775 50.8051 274.841 51.3255 274.841 51.9761C274.841 52.6266 274.775 53.147 274.515 53.6023C274.255 54.0577 273.865 54.3829 273.474 54.6431C273.019 55.0985 272.629 55.2286 271.978 55.2286Z" fill="#095EB1"/>
<path d="M276.402 49.3089H277.638V55.0334H276.402V49.3089ZM276.987 48.138C276.792 48.138 276.662 48.073 276.467 47.9429C276.272 47.7477 276.272 47.6827 276.272 47.4225C276.272 47.1623 276.337 47.0972 276.467 46.9021C276.662 46.7069 276.727 46.7069 276.987 46.7069C277.182 46.7069 277.312 46.772 277.508 46.9021C277.703 47.0972 277.703 47.1623 277.703 47.4225C277.703 47.6827 277.638 47.7477 277.508 47.9429C277.378 48.138 277.182 48.138 276.987 48.138Z" fill="#095EB1"/>
<path d="M280.5 46.1865H279.264V55.0334H280.5V46.1865Z" fill="#095EB1"/>
<path d="M282.061 49.3089H283.297V55.0334H282.061V49.3089ZM282.712 48.138C282.517 48.138 282.386 48.073 282.191 47.9429C281.996 47.7477 281.996 47.6827 281.996 47.4225C281.996 47.1623 282.061 47.0972 282.191 46.9021C282.386 46.7069 282.452 46.7069 282.712 46.7069C282.907 46.7069 283.037 46.772 283.232 46.9021C283.427 47.0972 283.427 47.1623 283.427 47.4225C283.427 47.6827 283.362 47.7477 283.232 47.9429C283.167 48.138 283.037 48.138 282.712 48.138Z" fill="#095EB1"/>
<path d="M287.265 55.2286C286.615 55.2286 286.224 55.0335 285.899 54.7082C285.639 54.3829 285.444 53.9276 285.444 53.2771V50.2197H284.533V49.309H285.444V47.6176H286.68V49.309H288.111V50.2197H286.68V53.147C286.68 53.4722 286.745 53.7975 286.875 53.9276C287.07 54.1228 287.33 54.1878 287.656 54.1878C287.916 54.1878 288.111 54.1227 288.371 53.9926V54.9684C288.046 55.2286 287.721 55.2286 287.265 55.2286Z" fill="#095EB1"/>
<path d="M289.607 49.3089H290.843V55.0334H289.607V49.3089ZM290.193 48.138C289.997 48.138 289.867 48.073 289.672 47.9429C289.477 47.7477 289.477 47.6827 289.477 47.4225C289.477 47.1623 289.542 47.0972 289.672 46.9021C289.867 46.7069 289.932 46.7069 290.193 46.7069C290.388 46.7069 290.518 46.772 290.713 46.9021C290.908 47.0972 290.908 47.1623 290.908 47.4225C290.908 47.6827 290.843 47.7477 290.713 47.9429C290.583 48.138 290.388 48.138 290.193 48.138Z" fill="#095EB1"/>
<path d="M297.348 51.8459C297.348 51.3255 297.153 50.8702 296.828 50.61C296.503 50.3498 296.047 50.1546 295.397 50.1546C294.746 50.1546 294.356 50.3498 293.966 50.61C293.64 50.8702 293.445 51.3255 293.445 51.8459H297.348ZM295.657 55.2286C294.616 55.2286 293.77 54.9684 293.185 54.448C292.534 53.9276 292.274 53.212 292.274 52.2362C292.274 51.2605 292.534 50.5449 293.055 50.0245C293.575 49.5041 294.421 49.2439 295.397 49.2439C296.047 49.2439 296.633 49.3089 297.088 49.5692C297.543 49.8294 297.869 50.2197 298.129 50.61C298.389 51.0003 298.454 51.5857 298.454 52.1061V52.7566H293.38C293.38 53.2771 293.64 53.7324 294.096 53.9926C294.551 54.2528 295.071 54.3179 295.787 54.3179C296.112 54.3179 296.503 54.3179 296.828 54.2528C297.153 54.1878 297.543 54.0577 297.804 53.9926V54.9684C297.543 55.0334 297.153 55.1635 296.828 55.2286C296.438 55.2286 296.112 55.2286 295.657 55.2286Z" fill="#095EB1"/>
<path d="M301.902 55.2286C301.577 55.2286 301.121 55.1636 300.666 55.0335C300.21 54.9034 299.885 54.7733 299.625 54.7082V53.6674C299.885 53.8625 300.341 53.9926 300.666 54.1227C301.121 54.1878 301.446 54.3179 301.837 54.3179C302.292 54.3179 302.552 54.2528 302.812 54.1227C303.008 54.0577 303.073 53.8625 303.073 53.6023C303.073 53.4072 303.008 53.2771 302.878 53.147C302.813 53.0819 302.617 52.9518 302.422 52.8868C302.227 52.8217 301.902 52.6916 301.446 52.6266C300.991 52.4314 300.666 52.3664 300.276 52.1712C300.015 51.9761 299.82 51.846 299.625 51.6508C299.43 51.4557 299.43 51.1304 299.43 50.8702C299.43 50.3498 299.625 49.8944 300.08 49.6342C300.536 49.374 301.056 49.1789 301.837 49.1789C302.162 49.1789 302.617 49.1789 303.008 49.2439C303.333 49.309 303.658 49.4391 303.918 49.5041V50.4799C303.658 50.2847 303.398 50.2197 303.008 50.1546C302.682 50.0896 302.292 50.0896 301.967 50.0896C301.511 50.0896 301.251 50.1546 300.991 50.2847C300.731 50.3498 300.666 50.5449 300.666 50.8051C300.666 51.0003 300.731 51.0654 300.861 51.2605C300.926 51.3256 301.121 51.4557 301.316 51.5207C301.511 51.5858 301.837 51.7159 302.292 51.7809C303.008 51.9761 303.528 52.2363 303.788 52.4965C304.048 52.7567 304.244 53.147 304.244 53.6674C304.244 54.1878 304.048 54.5781 303.593 54.8383C303.138 54.9684 302.682 55.2286 301.902 55.2286Z" fill="#095EB1"/>
<defs>
<linearGradient id="paint0_linear_375_85" x1="24.4592" y1="0.000427246" x2="24.4592" y2="48.9188" gradientUnits="userSpaceOnUse">
<stop stop-color="#095EB1"/>
<stop offset="0.4637" stop-color="#2F92D3"/>
<stop offset="1" stop-color="#5FD2FE"/>
</linearGradient>
</defs>
</svg>
