<svg width="78" height="89" viewBox="0 0 78 89" fill="none" xmlns="http://www.w3.org/2000/svg">
<path d="M54.0022 11.11L36.0922 0.53C35.7222 0.31 35.2822 0.25 34.8622 0.36C34.4422 0.47 34.0922 0.73 33.8722 1.11L33.0522 2.51C32.6622 3.18 32.5422 3.96 32.7422 4.71C32.9322 5.46 33.4122 6.09 34.0822 6.49L38.3222 9L32.6622 18.59L25.0622 14.1C24.6322 13.85 24.1322 13.78 23.6522 13.9C23.1722 14.02 22.7622 14.33 22.5122 14.76L21.2022 16.98C20.6822 17.86 20.9722 19.01 21.8622 19.53L22.5322 19.93L13.4422 35.31L3.34222 52.43C3.01222 53 2.91222 53.66 3.08222 54.3C3.25222 54.94 3.65222 55.47 4.21222 55.81L7.91222 57.99L6.12222 61.02C5.87222 61.44 5.80222 61.94 5.92222 62.42C6.04222 62.9 6.34222 63.3 6.77222 63.55L9.01222 64.87L0.142222 79.9C-0.147778 80.39 0.0222227 81.01 0.502223 81.3C0.742223 81.44 1.01222 81.48 1.27222 81.41C1.53222 81.34 1.76222 81.17 1.90222 80.94L10.7722 65.91L13.0122 67.23C13.4322 67.48 13.9322 67.55 14.4122 67.43C14.8922 67.31 15.2922 67.01 15.5422 66.58L17.3322 63.55L21.0322 65.73C21.6022 66.06 22.2622 66.16 22.9022 65.99C23.4622 65.85 23.9422 65.52 24.2722 65.06C24.3222 64.99 24.3622 64.93 24.4022 64.86L25.7322 62.6C25.8722 62.36 25.9122 62.09 25.8422 61.82C25.7722 61.56 25.6022 61.33 25.3722 61.19C25.1322 61.05 24.8622 61.01 24.5922 61.08C24.3322 61.15 24.1022 61.32 23.9622 61.55L22.6322 63.81C22.6222 63.83 22.6022 63.86 22.5822 63.88C22.5322 63.94 22.4522 63.98 22.3722 64C22.2622 64.03 22.1522 64.01 22.0522 63.96L17.4722 61.26L9.83222 56.75L5.25222 54.05C5.14222 53.98 5.09222 53.89 5.07222 53.82C5.07222 53.81 5.06222 53.8 5.06222 53.79C5.04222 53.73 5.03222 53.6 5.10222 53.47L8.12222 48.35L12.7322 51.07C12.9722 51.21 13.2422 51.25 13.5122 51.18C13.7722 51.11 14.0022 50.94 14.1422 50.71C14.4322 50.22 14.2622 49.6 13.7822 49.31L9.17222 46.59L12.5822 40.81L19.7722 45.06C20.0122 45.2 20.2822 45.24 20.5522 45.17C20.8122 45.1 21.0422 44.93 21.1822 44.7C21.3222 44.46 21.3622 44.19 21.2922 43.92C21.2222 43.66 21.0522 43.43 20.8222 43.29L13.6322 39.04L14.7022 37.23L32.2222 47.58L27.9422 54.84C27.8022 55.08 27.7622 55.35 27.8322 55.62C27.9022 55.88 28.0722 56.11 28.3022 56.25C28.5422 56.39 28.8122 56.43 29.0822 56.36C29.3422 56.29 29.5722 56.12 29.7122 55.89L43.6022 32.36L44.2722 32.76C44.7022 33.01 45.2022 33.08 45.6822 32.96C46.1622 32.84 46.5722 32.53 46.8222 32.1L48.1322 29.88C48.6522 29 48.3622 27.85 47.4722 27.33L39.8722 22.84L45.5322 13.25L49.7922 15.76C50.4622 16.15 51.2422 16.27 51.9922 16.07C52.7422 15.87 53.3722 15.4 53.7722 14.73L54.5922 13.33C54.8122 12.96 54.8722 12.52 54.7622 12.1C54.6522 11.68 54.3722 11.33 54.0022 11.11ZM15.5522 62.5L13.8722 65.35L7.99222 61.88L9.67222 59.03L15.5522 62.5ZM46.2622 28.98L45.1322 30.89L33.7422 24.16C33.5022 24.02 33.2322 23.98 32.9622 24.05C32.7022 24.12 32.4722 24.29 32.3322 24.52C32.0422 25.01 32.2122 25.63 32.6922 25.92L41.8022 31.3L33.2322 45.81L15.7222 35.47L17.0322 33.26L21.6422 35.98C21.8822 36.12 22.1522 36.16 22.4222 36.09C22.6822 36.02 22.9122 35.85 23.0522 35.62C23.3422 35.13 23.1722 34.51 22.6922 34.22L18.0822 31.5L21.4922 25.72L28.6822 29.97C28.9222 30.11 29.1922 30.15 29.4622 30.08C29.7222 30.01 29.9522 29.84 30.0922 29.61C30.3822 29.12 30.2122 28.5 29.7322 28.21L22.5422 23.96L24.3122 20.96L25.6622 21.75C25.9022 21.89 26.1722 21.93 26.4422 21.86C26.7022 21.79 26.9322 21.62 27.0722 21.39C27.3622 20.9 27.1922 20.28 26.7122 19.99L24.4822 18.68L23.0822 17.86L24.2122 15.95L32.5322 20.86L37.9622 24.06L46.2622 28.98ZM38.0922 21.79L36.2622 20.71L34.4322 19.63L40.0922 10.04L41.9222 11.12L43.7522 12.2L38.0922 21.79ZM51.9822 13.69C51.8622 13.89 51.6822 14.03 51.4522 14.09C51.2322 14.15 51.0022 14.11 50.8022 14L45.6622 10.97L40.2322 7.77L35.0922 4.74C34.8922 4.62 34.7522 4.44 34.6922 4.21C34.6322 3.99 34.6722 3.76 34.7822 3.56L35.3922 2.53L52.5722 12.67L51.9822 13.69Z" fill="black"/>
<path d="M30.9622 71.96C27.9122 77.33 29.8022 84.19 35.1722 87.24C40.5422 90.29 47.4022 88.4 50.4522 83.03C55.0122 75.01 65.9222 55.79 70.3122 48.06L71.1122 48.51C72.0922 49.07 73.3522 48.72 73.9022 47.74L77.0822 42.14C77.6422 41.16 77.2922 39.9 76.3122 39.35L55.2322 27.38C54.2522 26.82 52.9922 27.17 52.4422 28.15L49.2622 33.75C48.7022 34.73 49.0522 35.99 50.0322 36.54L50.8322 36.99C46.4422 44.71 35.5122 63.96 30.9622 71.96ZM35.7722 86.18C30.9922 83.47 29.2922 77.36 32.0222 72.56L43.8922 51.65L61.2722 61.52L49.4022 82.43C46.6722 87.22 40.5622 88.9 35.7722 86.18ZM50.3122 34.35L53.4922 28.75C53.7222 28.35 54.2322 28.21 54.6322 28.44L75.7122 40.41C76.1122 40.64 76.2522 41.15 76.0222 41.55L72.8422 47.15C72.6122 47.55 72.1022 47.69 71.7022 47.46C62.5022 42.24 66.1122 44.28 50.6222 35.49C50.2222 35.26 50.0822 34.75 50.3122 34.35ZM69.2522 47.46L61.8722 60.46L44.4922 50.59L51.8722 37.59L69.2522 47.46Z" fill="black"/>
<path d="M53.1922 35.35C53.4822 35.52 53.8522 35.41 54.0222 35.12L56.0622 31.53C56.2322 31.24 56.1222 30.87 55.8322 30.7C55.5422 30.53 55.1722 30.64 55.0022 30.93L52.9622 34.52C52.7922 34.81 52.9022 35.18 53.1922 35.35Z" fill="black"/>
<path d="M56.0723 36.99C56.3623 37.16 56.7323 37.05 56.9023 36.76L58.9423 33.17C59.1123 32.88 59.0023 32.51 58.7123 32.34C58.4223 32.17 58.0523 32.28 57.8823 32.57L55.8423 36.16C55.6823 36.45 55.7823 36.82 56.0723 36.99Z" fill="black"/>
<path d="M58.9622 38.63C59.2522 38.8 59.6222 38.69 59.7922 38.4L61.8322 34.81C62.0022 34.52 61.8922 34.15 61.6022 33.98C61.3122 33.81 60.9422 33.92 60.7722 34.21L58.7322 37.8C58.5722 38.09 58.6722 38.46 58.9622 38.63Z" fill="black"/>
<path d="M61.8522 40.27C62.1422 40.44 62.5122 40.33 62.6822 40.04L64.7222 36.45C64.8922 36.16 64.7822 35.79 64.4922 35.62C64.2022 35.45 63.8322 35.56 63.6622 35.85L61.6222 39.44C61.4522 39.73 61.5622 40.1 61.8522 40.27Z" fill="black"/>
<path d="M64.7422 41.91C65.0322 42.08 65.4022 41.97 65.5722 41.68L67.6122 38.09C67.7822 37.8 67.6722 37.43 67.3822 37.26C67.0922 37.09 66.7222 37.2 66.5522 37.49L64.5122 41.08C64.3422 41.37 64.4422 41.74 64.7422 41.91Z" fill="black"/>
<path d="M67.6222 43.55C67.9122 43.72 68.2822 43.61 68.4522 43.32L70.4922 39.73C70.6622 39.44 70.5522 39.07 70.2622 38.9C69.9722 38.73 69.6022 38.84 69.4322 39.13L67.3922 42.72C67.2322 43.01 67.3322 43.38 67.6222 43.55Z" fill="black"/>
<path d="M70.5123 45.18C70.8023 45.35 71.1723 45.24 71.3423 44.95L73.3823 41.36C73.5523 41.07 73.4423 40.7 73.1523 40.53C72.8623 40.36 72.4923 40.47 72.3223 40.76L70.2823 44.35C70.1223 44.65 70.2223 45.02 70.5123 45.18Z" fill="black"/>
<path d="M76.2722 60.31C75.9122 60.45 67.3422 63.85 65.6522 66.83C63.8822 69.94 64.9822 73.91 68.0922 75.67C71.2022 77.44 75.1722 76.34 76.9322 73.23C78.6222 70.26 77.1522 61.16 77.0922 60.77C77.0322 60.41 76.6122 60.17 76.2722 60.31ZM68.6922 74.61C66.1622 73.17 65.2722 69.95 66.7122 67.42C67.8322 65.45 73.2722 62.87 76.0122 61.72C76.4322 64.66 77.0022 70.65 75.8822 72.63C74.4422 75.16 71.2122 76.05 68.6922 74.61Z" fill="black"/>
<path d="M30.9622 71.96C27.9122 77.33 29.8022 84.19 35.1722 87.24C40.5422 90.29 47.4022 88.4 50.4522 83.03C55.0122 75.01 65.9222 55.79 70.3122 48.06L71.1122 48.51C72.0922 49.07 73.3522 48.72 73.9022 47.74L77.0822 42.14C77.6422 41.16 77.2922 39.9 76.3122 39.35L55.2322 27.38C54.2522 26.82 52.9922 27.17 52.4422 28.15L49.2622 33.75C48.7022 34.73 49.0522 35.99 50.0322 36.54L50.8322 36.99C46.4422 44.71 35.5122 63.96 30.9622 71.96ZM35.7722 86.18C30.9922 83.47 29.2922 77.36 32.0222 72.56L43.8922 51.65L61.2722 61.52L49.4022 82.43C46.6722 87.22 40.5622 88.9 35.7722 86.18ZM50.3122 34.35L53.4922 28.75C53.7222 28.35 54.2322 28.21 54.6322 28.44L75.7122 40.41C76.1122 40.64 76.2522 41.15 76.0222 41.55L72.8422 47.15C72.6122 47.55 72.1022 47.69 71.7022 47.46C62.5022 42.24 66.1122 44.28 50.6222 35.49C50.2222 35.26 50.0822 34.75 50.3122 34.35ZM69.2522 47.46L61.8722 60.46L44.4922 50.59L51.8722 37.59L69.2522 47.46Z" fill="black"/>
<path d="M53.1922 35.35C53.4822 35.52 53.8522 35.41 54.0222 35.12L56.0622 31.53C56.2322 31.24 56.1222 30.87 55.8322 30.7C55.5422 30.53 55.1722 30.64 55.0022 30.93L52.9622 34.52C52.7922 34.81 52.9022 35.18 53.1922 35.35Z" fill="black"/>
<path d="M56.0723 36.99C56.3623 37.16 56.7323 37.05 56.9023 36.76L58.9423 33.17C59.1123 32.88 59.0023 32.51 58.7123 32.34C58.4223 32.17 58.0523 32.28 57.8823 32.57L55.8423 36.16C55.6823 36.45 55.7823 36.82 56.0723 36.99Z" fill="black"/>
<path d="M58.9622 38.63C59.2522 38.8 59.6222 38.69 59.7922 38.4L61.8322 34.81C62.0022 34.52 61.8922 34.15 61.6022 33.98C61.3122 33.81 60.9422 33.92 60.7722 34.21L58.7322 37.8C58.5722 38.09 58.6722 38.46 58.9622 38.63Z" fill="black"/>
<path d="M61.8522 40.27C62.1422 40.44 62.5122 40.33 62.6822 40.04L64.7222 36.45C64.8922 36.16 64.7822 35.79 64.4922 35.62C64.2022 35.45 63.8322 35.56 63.6622 35.85L61.6222 39.44C61.4522 39.73 61.5622 40.1 61.8522 40.27Z" fill="black"/>
<path d="M64.7422 41.91C65.0322 42.08 65.4022 41.97 65.5722 41.68L67.6122 38.09C67.7822 37.8 67.6722 37.43 67.3822 37.26C67.0922 37.09 66.7222 37.2 66.5522 37.49L64.5122 41.08C64.3422 41.37 64.4422 41.74 64.7422 41.91Z" fill="black"/>
<path d="M67.6222 43.55C67.9122 43.72 68.2822 43.61 68.4522 43.32L70.4922 39.73C70.6622 39.44 70.5522 39.07 70.2622 38.9C69.9722 38.73 69.6022 38.84 69.4322 39.13L67.3922 42.72C67.2322 43.01 67.3322 43.38 67.6222 43.55Z" fill="black"/>
<path d="M70.5123 45.18C70.8023 45.35 71.1723 45.24 71.3423 44.95L73.3823 41.36C73.5523 41.07 73.4423 40.7 73.1523 40.53C72.8623 40.36 72.4923 40.47 72.3223 40.76L70.2823 44.35C70.1223 44.65 70.2223 45.02 70.5123 45.18Z" fill="black"/>
<path d="M76.2722 60.31C75.9122 60.45 67.3422 63.85 65.6522 66.83C63.8822 69.94 64.9822 73.91 68.0922 75.67C71.2022 77.44 75.1722 76.34 76.9322 73.23C78.6222 70.26 77.1522 61.16 77.0922 60.77C77.0322 60.41 76.6122 60.17 76.2722 60.31ZM68.6922 74.61C66.1622 73.17 65.2722 69.95 66.7122 67.42C67.8322 65.45 73.2722 62.87 76.0122 61.72C76.4322 64.66 77.0022 70.65 75.8822 72.63C74.4422 75.16 71.2122 76.05 68.6922 74.61Z" fill="black"/>
</svg>
