<svg width="119" height="51" viewBox="0 0 119 51" fill="none" xmlns="http://www.w3.org/2000/svg">
<path d="M115.653 15.4927C114.463 14.2907 113.082 13.4182 111.614 12.856C111.383 9.65716 110.049 6.51646 107.631 4.06401C102.267 -1.35467 93.564 -1.35467 88.1904 4.06401L84.947 7.34041L81.7036 4.06401C76.3396 -1.35467 67.6363 -1.35467 62.2627 4.06401C57.6472 8.72659 57.0042 15.8804 60.3244 21.2409H62.4258C60.8233 19.0986 59.9213 16.4717 59.9501 13.7575C59.9789 10.5102 61.2743 7.45674 63.5869 5.17876C65.8707 2.92987 68.9605 1.6891 72.1367 1.73756C75.2841 1.77634 78.2396 3.03649 80.4754 5.29508L84.9278 9.79287L89.3802 5.29508C91.616 3.03649 94.5715 1.77634 97.7189 1.73756C100.905 1.69879 103.995 2.93956 106.269 5.17876C108.245 7.11746 109.474 9.62808 109.81 12.3423C106.182 11.6056 102.258 12.6525 99.4461 15.5024L96.7497 18.2262L94.0533 15.5024C89.5817 10.9852 82.337 10.9852 77.8749 15.5024C73.672 19.7481 73.4225 26.4851 77.1265 31.0217L87.5282 41.5391L84.947 44.1467L65.0071 24.0133C64.4697 23.4704 63.7404 23.1699 62.9824 23.1893C61.6006 23.2087 59.6047 23.2572 58.9906 23.1602C57.436 22.9276 56.8987 21.3282 56.6012 19.9808C56.1694 18.0227 55.9199 16.0161 55.5841 14.0386C55.277 12.2066 55.0755 10.1806 53.9624 8.62965C53.1372 7.48582 51.7074 6.93329 50.3448 7.39858C49.6635 7.63122 49.0878 8.06743 48.6751 8.66842C48.205 9.36636 48.0898 10.2679 47.9555 11.0724C47.6196 13.1177 47.5141 15.1825 47.4853 17.2569C47.4181 21.4929 47.4949 25.7387 47.3797 29.9748C47.2934 33.0282 46.708 36.8378 43.3687 37.875C42.1213 38.2627 40.7587 38.0979 39.8951 36.9929C38.9547 35.8006 38.9259 34.0751 38.9259 32.6308C38.9163 28.3463 38.9739 24.0617 39.0027 19.7675C39.0122 18.6624 39.0122 17.5574 39.0218 16.462C39.0218 15.6381 39.0026 14.7366 38.5612 14.0192C38.1486 13.3407 37.4002 12.9142 36.6037 12.9917C35.8457 13.0693 35.1452 13.4958 34.6558 14.0871C34.08 14.7753 33.821 15.5605 33.7922 16.4523C33.7538 17.4701 34.0033 18.4589 34.08 19.467C34.1376 20.2328 34.0704 20.9501 33.6674 21.619C33.3604 22.123 32.871 22.5108 32.3432 22.4041C31.7387 22.2781 31.3645 22.85 31.5947 23.3832C31.8634 24.0133 31.6715 24.8275 31.1821 25.2831C30.6832 25.7484 29.8771 25.8453 29.2726 25.5351C28.7736 25.2734 28.1403 25.6999 28.3034 26.2912C28.4761 26.9116 27.6317 27.3187 27.1039 27.0958C26.3363 26.7759 26.01 25.8356 25.9621 25.0699C25.8949 24.1005 26.0484 23.1215 26.1156 22.1521C26.1732 21.2409 26.2211 20.3297 26.2499 19.4185C26.3171 17.7319 26.3555 16.0355 26.3843 14.3488C26.3939 13.5636 26.4131 12.7785 26.4227 12.003C26.4322 11.2178 26.4035 10.4811 26.0004 9.78318C25.1752 8.31946 23.3424 7.76693 21.8359 8.46486C21.145 8.78475 20.5789 9.37605 20.2814 10.074C19.9072 10.927 19.9743 11.8964 19.9455 12.8173C19.9167 13.6703 19.888 14.5233 19.8784 15.3763C19.8688 16.1324 19.8592 16.8885 19.7152 17.6349C19.4274 19.1762 18.6981 20.6108 17.182 21.2215C16.4047 21.5317 15.5603 21.6383 14.7351 21.6771C13.7179 21.7353 12.6912 21.7256 11.674 21.7353C9.49579 21.7644 7.30796 21.7934 5.12973 21.8225C5.04337 21.8225 4.9762 21.8419 4.90903 21.8613C4.59237 20.6884 3.46007 19.8547 2.17425 20.0292C1.04195 20.1746 0.139951 21.1052 0.0152066 22.249C-0.147921 23.7709 1.02276 25.0602 2.5005 25.0602C3.67118 25.0602 4.65954 24.2459 4.92822 23.1408C4.99539 23.1602 5.06256 23.1699 5.13933 23.1699C5.69588 23.1602 6.25243 23.1505 6.80898 23.1505C9.03519 23.1215 11.2614 23.0924 13.4876 23.0633C15.2916 23.0342 17.2971 22.9761 18.8036 21.8516C20.243 20.7756 20.8763 19.0696 21.1066 17.3344C21.2122 16.5396 21.2026 15.7447 21.2218 14.9401C21.241 14.0096 21.2697 13.0693 21.2985 12.1387C21.3273 11.3923 21.3081 10.675 21.8647 10.1031C22.2965 9.65716 22.9586 9.42452 23.5727 9.55053C24.1964 9.68624 24.7242 10.0934 24.9737 10.6944C25.2328 11.3244 25.108 12.1193 25.0984 12.7882C25.0505 16.1421 25.0025 19.4961 24.753 22.8403C24.6091 24.7112 24.4075 26.8728 26.1252 28.1039C26.8545 28.6274 27.8236 28.6952 28.5913 28.2299C29.0423 27.9585 29.3973 27.532 29.5509 27.0473C30.4625 27.1927 31.422 26.9407 32.1225 26.2815C32.823 25.6224 33.1013 24.6724 33.0053 23.7515C33.4179 23.6643 33.8114 23.4607 34.1568 23.1602C34.7326 22.6562 35.126 21.9195 35.3083 21.1828C35.5482 20.2522 35.4043 19.2828 35.2699 18.3522C35.1548 17.4992 34.9437 16.4814 35.2795 15.6575C35.5098 15.0758 36.0568 14.5233 36.6421 14.407C36.834 14.3682 37.0451 14.407 37.2082 14.5233C37.429 14.6881 37.5441 14.9401 37.6209 15.2019C37.8416 16.0355 37.7264 16.9661 37.7168 17.8191C37.7072 19.9808 37.688 22.1424 37.6784 24.3041C37.6688 26.5142 37.6497 28.7146 37.6401 30.9247C37.6305 32.6599 37.5057 34.4823 38.0143 36.1592C38.4749 37.6714 39.5496 38.9897 41.1233 39.3581C42.5915 39.7071 44.1843 39.2708 45.4222 38.4275C48.512 36.3046 48.7231 32.2237 48.7423 28.8019C48.7711 24.4785 48.7231 20.1552 48.8575 15.8416C48.8958 14.7172 48.9726 13.6024 49.0974 12.4877C49.1933 11.6443 49.3181 10.7816 49.558 9.97705C49.865 8.93015 50.9877 8.44547 51.9281 8.73628C52.4751 8.91076 52.8781 9.38575 53.1851 9.96736C53.6265 10.7913 53.8281 11.7219 54.0008 12.6331C54.3846 14.6978 54.7013 16.7819 55.0371 18.8466C55.2962 20.4073 55.5553 22.0746 56.582 23.3347C57.129 24.0036 57.9062 24.4301 58.7507 24.5561C59.6431 24.6918 60.5643 24.6336 61.4663 24.6433C61.5622 24.6433 61.7349 24.6433 61.9364 24.6433C62.6753 24.6433 63.3854 24.9438 63.9132 25.4673L65.4869 27.057L84.9278 46.6961L88.7277 42.8574L96.7593 51L116.008 31.5354C120.115 26.9116 119.991 19.8838 115.653 15.4927ZM2.5101 24.4592C1.42578 24.4592 0.552568 23.577 0.552568 22.4817C0.552568 21.3863 1.42578 20.5042 2.5101 20.5042C3.59441 20.5042 4.46763 21.3863 4.46763 22.4817C4.46763 23.5674 3.59441 24.4592 2.5101 24.4592ZM114.636 30.8181L96.7689 48.8674L89.7353 41.7621L88.5262 40.5407L79.0936 31.012L78.9017 30.8181C77.0113 28.9085 75.9654 26.3688 75.9654 23.6643C75.9654 20.9598 77.0113 18.4201 78.9017 16.5105C80.792 14.6009 83.3061 13.5443 85.9833 13.5443C88.6605 13.5443 91.1746 14.6009 93.065 16.5105L96.7689 20.2522L100.473 16.5105C102.363 14.6009 104.877 13.5443 107.555 13.5443C108.361 13.5443 109.157 13.6412 109.925 13.8254C110.51 13.9708 111.086 14.1646 111.633 14.407C112.736 14.9014 113.753 15.609 114.636 16.5008C116.527 18.4104 117.572 20.9501 117.572 23.6546C117.572 26.3591 116.527 28.9085 114.636 30.8181Z" fill="#010101"/>
</svg>
